<svg width="51" height="50" viewBox="0 0 51 50" fill="none" xmlns="http://www.w3.org/2000/svg">
<path d="M46.1481 35.4167V27.0833C46.1481 15.5774 36.8207 6.25 25.3148 6.25C13.8088 6.25 4.48145 15.5774 4.48145 27.0833V35.4167M15.9398 43.75C13.0633 43.75 10.7314 41.4181 10.7314 38.5417V32.2917C10.7314 29.4152 13.0633 27.0833 15.9398 27.0833C18.8163 27.0833 21.1481 29.4152 21.1481 32.2917V38.5417C21.1481 41.4181 18.8163 43.75 15.9398 43.75ZM34.6898 43.75C31.8133 43.75 29.4814 41.4181 29.4814 38.5417V32.2917C29.4814 29.4152 31.8133 27.0833 34.6898 27.0833C37.5663 27.0833 39.8981 29.4152 39.8981 32.2917V38.5417C39.8981 41.4181 37.5663 43.75 34.6898 43.75Z" stroke="black" stroke-width="4.6875" stroke-linecap="round" stroke-linejoin="round"/>
</svg>
